<svg xmlns="http://www.w3.org/2000/svg" width="166.840" height="51" viewBox="0 0 166.840 51" fill="none">
  <path d="M 13.56 21.52 C 13.56 22.81 12.94 23.42 11.66 23.42 L 10.49 23.42 L 10.49 9.07 L 11.66 9.07 C 12.94 9.07 13.56 9.68 13.56 10.97 L 13.56 21.52 Z M 18.34 27.9 C 23.49 26.98 24.05 23.36 24.05 17.78 L 24.05 11.1 C 24.04 2.45 22.2 0.61 13.56 0.61 L 0 0.61 L 0 50.41 L 10.49 50.41 L 10.49 32.5 L 11.66 32.5 C 12.94 32.5 13.56 33.12 13.56 34.4 L 13.56 50.4 L 24.04 50.4 L 24.04 38.13 C 24.04 32.37 23.49 28.99 18.33 28.02 L 18.33 27.89 L 18.34 27.9 Z M 26.8 50.41 L 43.54 50.41 L 43.54 40.72 L 37.29 40.72 L 37.29 30.35 L 42.93 30.35 L 42.93 20.05 L 37.29 20.05 L 37.29 10.3 L 43.54 10.3 L 43.54 0.61 L 26.8 0.61 L 26.8 50.41 Z M 57.9 19.38 C 56.18 18.34 55.87 17.66 55.87 15.88 L 55.87 10.36 C 55.87 9.07 56.48 8.77 57.41 8.77 C 58.34 8.77 58.94 9.08 58.94 10.36 L 58.94 18.27 L 69.43 18.27 L 69.43 10.79 C 69.43 2.14 67.65 0 57.35 0 C 47.05 0 45.39 2.15 45.39 10.79 L 45.39 17.9 C 45.39 22.19 46.56 24.83 49.93 26.85 L 56.92 31.08 C 58.64 32.12 58.94 32.8 58.94 34.58 L 58.94 40.65 C 58.94 41.93 58.33 42.25 57.41 42.25 C 56.49 42.25 55.87 41.94 55.87 40.65 L 55.87 32.18 L 45.38 32.18 L 45.38 40.21 C 45.38 48.86 47.16 51 57.46 51 C 67.76 51 69.42 48.86 69.42 40.21 L 69.42 32.55 C 69.42 28.26 68.25 25.62 64.88 23.6 L 57.89 19.37 L 57.9 19.38 Z M 86.05 23.67 C 86.05 24.96 85.44 25.57 84.15 25.57 L 82.98 25.57 L 82.98 9.08 L 84.15 9.08 C 85.44 9.08 86.05 9.69 86.05 10.98 L 86.05 23.68 L 86.05 23.67 Z M 96.54 11.1 C 96.54 2.46 94.7 0.61 86.05 0.61 L 72.5 0.61 L 72.5 50.41 L 82.98 50.41 L 82.98 34.65 L 86.05 34.65 C 94.7 34.65 96.54 32.81 96.54 24.16 L 96.54 11.1 Z M 99 50.41 L 115.74 50.41 L 115.74 40.72 L 109.49 40.72 L 109.49 30.35 L 115.13 30.35 L 115.13 20.05 L 109.49 20.05 L 109.49 10.3 L 115.74 10.3 L 115.74 0.61 L 99 0.61 L 99 50.41 Z M 129.42 21.95 L 129.3 21.95 L 129.3 0.61 L 118.81 0.61 L 118.81 50.41 L 129.3 50.41 L 129.3 29.93 L 129.42 29.93 L 135.07 50.41 L 146.48 50.41 L 139.18 25.08 L 144.64 0.61 L 133.85 0.61 L 129.43 21.95 L 129.42 21.95 Z M 150.95 50.41 L 161.44 50.41 L 161.44 10.3 L 166.84 10.3 L 166.84 0.61 L 145.56 0.61 L 145.56 10.3 L 150.96 10.3 L 150.96 50.41 L 150.95 50.41 Z" fill="currentColor" fill-rule="nonzero"></path>
</svg>