<svg xmlns="http://www.w3.org/2000/svg" width="24.05" height="51" viewBox="0 0 24.05 51" fill="none">
  <path d="M 13.56 21.52 C 13.56 22.81 12.94 23.42 11.66 23.42 L 10.49 23.42 L 10.49 9.07 L 11.66 9.07 C 12.94 9.07 13.56 9.68 13.56 10.97 L 13.56 21.52 Z M 18.34 27.9 C 23.49 26.98 24.05 23.36 24.05 17.78 L 24.05 11.1 C 24.04 2.45 22.2 0.61 13.56 0.61 L 0 0.61 L 0 50.41 L 10.49 50.41 L 10.49 32.5 L 11.66 32.5 C 12.94 32.5 13.56 33.12 13.56 34.4 L 13.56 50.4 L 24.04 50.4 L 24.04 38.13 C 24.04 32.37 23.49 28.99 18.33 28.02 L 18.33 27.89 L 18.34 27.9 Z" fill="currentColor" fill-rule="nonzero"></path>
</svg>
